<svg width="241" height="196" viewBox="0 0 241 196" fill="none" xmlns="http://www.w3.org/2000/svg">
<g filter="url(#filter0_i_319_15)">
<rect width="240.463" height="196" fill="#C2CBE2"/>
</g>
<path d="M68.0655 43.2484C65.6762 42.907 63.0309 42.7364 60.1295 42.7364C57.2282 42.7364 54.2842 43.547 51.2975 45.1684C48.3962 46.7897 46.9455 48.923 46.9455 51.5684C46.9455 56.0057 48.5242 58.2244 51.6815 58.2244C52.9615 58.2244 53.9855 58.651 54.7535 59.5044C55.5215 60.3577 55.9055 61.4244 55.9055 62.7044C55.9055 63.9844 55.4362 65.051 54.4975 65.9044C53.5589 66.6724 52.2789 67.0564 50.6575 67.0564C47.6709 67.0564 45.1109 65.819 42.9775 63.3444C40.9295 60.7844 39.9055 57.7977 39.9055 54.3844C39.9055 50.8857 40.7589 47.771 42.4655 45.0404C44.1722 42.2244 46.3909 40.0057 49.1215 38.3844C54.4975 35.3124 60.5989 33.7764 67.4255 33.7764C75.7029 33.7764 79.8415 36.251 79.8415 41.2004C79.8415 43.5897 79.6282 49.819 79.2015 59.8884C78.8602 69.8724 78.6895 78.9604 78.6895 87.1524C78.6895 95.259 78.2629 102.555 77.4095 109.04C76.6415 115.526 75.1909 121.968 73.0575 128.368C71.0095 134.768 68.3215 140.23 64.9935 144.752C61.7509 149.275 57.4842 152.944 52.1935 155.76C46.9882 158.576 41.0575 159.984 34.4015 159.984C27.6602 159.984 21.7722 158.448 16.7375 155.376C11.6175 152.39 9.05754 148.934 9.05754 145.008C9.05754 143.216 9.56954 141.723 10.5935 140.528C11.6175 139.419 12.8975 138.864 14.4335 138.864C15.8842 138.864 17.2495 139.291 18.5295 140.144C19.7242 140.998 21.0469 142.15 22.4975 143.6C28.1295 149.403 34.3589 152.304 41.1855 152.304C45.8789 152.304 50.0602 150.512 53.7295 146.928C57.3989 143.344 60.3429 138.48 62.5615 132.336C66.9135 120.048 69.0895 105.456 69.0895 88.5604C69.0895 64.7524 68.7482 49.6484 68.0655 43.2484ZM187.459 60.4004C187.459 49.819 183.661 44.5284 176.067 44.5284C172.653 44.5284 169.667 45.4244 167.107 47.2164C164.632 48.923 163.395 51.355 163.395 54.5124C163.395 56.475 163.907 57.8404 164.931 58.6084C165.955 59.291 167.661 59.931 170.051 60.5284C172.44 61.1257 174.147 61.8084 175.171 62.5764C176.195 63.3444 176.707 64.7097 176.707 66.6724C176.707 68.5497 176.067 70.043 174.787 71.1524C173.507 72.1764 171.928 72.6884 170.051 72.6884C166.723 72.6884 163.608 71.1524 160.707 68.0804C157.805 64.923 156.355 60.827 156.355 55.7924C156.355 50.6724 158.445 45.723 162.627 40.9444C166.808 36.1657 172.141 33.7764 178.627 33.7764C185.112 33.7764 189.976 35.739 193.219 39.6644C196.461 43.5897 198.083 48.795 198.083 55.2804C198.083 65.5204 194.413 77.595 187.075 91.5044C179.736 105.414 172.44 115.44 165.187 121.584C163.651 122.95 162.115 123.632 160.579 123.632C157.848 123.632 155.8 121.968 154.435 118.64C154.179 118.128 153.795 117.104 153.283 115.568C151.32 109.595 149.613 104.603 148.163 100.592C142.275 110.15 136.685 117.147 131.395 121.584C129.859 122.95 128.323 123.632 126.787 123.632C123.971 123.632 121.923 121.968 120.643 118.64C120.472 118.128 119.661 115.782 118.211 111.6C116.76 107.419 115.011 102.384 112.963 96.4964C110.915 90.523 109.123 85.403 107.587 81.1364C106.051 76.8697 104.429 72.475 102.723 67.9524C101.016 63.3444 99.6932 59.8457 98.7545 57.4564C97.9012 55.067 97.0479 52.635 96.1945 50.1604C94.6585 45.8084 93.8905 42.651 93.8905 40.6884C93.8905 38.7257 94.3599 37.1044 95.2985 35.8244C96.2372 34.459 97.5599 33.7764 99.2665 33.7764C102.424 33.7764 104.643 35.5257 105.923 39.0244C106.179 39.6217 106.776 41.627 107.715 45.0404C112.664 61.7657 120.131 84.123 130.115 112.112C135.747 106.139 140.696 99.1417 144.963 91.1204C144.109 88.987 142.829 85.531 141.123 80.7524C139.501 75.8884 137.795 71.067 136.003 66.2884C134.296 61.4244 132.973 57.8404 132.035 55.5364C131.181 53.147 130.371 50.843 129.603 48.6244C128.323 45.0404 127.683 42.3097 127.683 40.4324C127.683 38.555 128.152 36.9764 129.091 35.6964C130.029 34.4164 131.352 33.7764 133.059 33.7764C136.216 33.7764 138.435 35.5257 139.715 39.0244C139.971 39.6217 140.568 41.627 141.507 45.0404C146.456 61.7657 153.923 84.123 163.907 112.112C169.88 105.798 175.299 97.947 180.163 88.5604C185.027 79.0884 187.459 69.7017 187.459 60.4004Z" fill="black"/>
<line x1="89.1003" y1="145.693" x2="200.744" y2="145.693" stroke="#403737" stroke-width="10"/>
<line y1="-5" x2="86.1215" y2="-5" transform="matrix(0.468838 -0.883284 0.872311 0.488952 200.623 150.966)" stroke="#403737" stroke-width="10"/>
<defs>
<filter id="filter0_i_319_15" x="0" y="0" width="240.463" height="200" filterUnits="userSpaceOnUse" color-interpolation-filters="sRGB">
<feFlood flood-opacity="0" result="BackgroundImageFix"/>
<feBlend mode="normal" in="SourceGraphic" in2="BackgroundImageFix" result="shape"/>
<feColorMatrix in="SourceAlpha" type="matrix" values="0 0 0 0 0 0 0 0 0 0 0 0 0 0 0 0 0 0 127 0" result="hardAlpha"/>
<feOffset dy="4"/>
<feGaussianBlur stdDeviation="2"/>
<feComposite in2="hardAlpha" operator="arithmetic" k2="-1" k3="1"/>
<feColorMatrix type="matrix" values="0 0 0 0 0 0 0 0 0 0 0 0 0 0 0 0 0 0 0.25 0"/>
<feBlend mode="normal" in2="shape" result="effect1_innerShadow_319_15"/>
</filter>
</defs>
</svg>
